<?xml version="1.0" encoding="UTF-8" standalone="no"?>
<!DOCTYPE svg PUBLIC "-//W3C//DTD SVG 1.1//EN"
 "http://www.w3.org/Graphics/SVG/1.1/DTD/svg11.dtd">
<!-- Generated by graphviz version 2.43.0 (0)
 -->
<!-- Title: G Pages: 1 -->
<svg width="683pt" height="792pt"
 viewBox="0.00 0.00 682.69 792.24" xmlns="http://www.w3.org/2000/svg" xmlns:xlink="http://www.w3.org/1999/xlink">
<g id="graph0" class="graph" transform="scale(1 1) rotate(0) translate(4 788.24)">
<title>G</title><style>.edge>path:hover{stroke-width:8}</style>
<polygon fill="white" stroke="transparent" points="-4,4 -4,-788.24 678.69,-788.24 678.69,4 -4,4"/>
<!-- needle -->
<g id="node1" class="node">
<title>needle</title><style>.edge>path:hover{stroke-width:8}</style>
<ellipse fill="#b30404" stroke="black" cx="527.15" cy="-18" rx="29.37" ry="18"/>
<text text-anchor="middle" x="527.15" y="-15.5" font-family="Helvetica,sans-Serif" font-size="10.00" fill="#ffffff">needle</text>
</g>
<!-- needle_autograd -->
<g id="node2" class="node">
<title>needle_autograd</title><style>.edge>path:hover{stroke-width:8}</style>
<ellipse fill="#ca1616" stroke="black" cx="427.15" cy="-237.21" rx="42.35" ry="21.43"/>
<text text-anchor="middle" x="427.15" y="-240.21" font-family="Helvetica,sans-Serif" font-size="10.00" fill="#ffffff">needle.</text>
<text text-anchor="middle" x="427.15" y="-229.21" font-family="Helvetica,sans-Serif" font-size="10.00" fill="#ffffff">autograd</text>
</g>
<!-- needle&#45;&gt;needle_autograd -->
<g id="edge1" class="edge">
<title>needle&#45;&gt;needle_autograd</title><style>.edge>path:hover{stroke-width:8}</style>
<path fill="none" stroke="black" d="M419.15,-163C416.71,-177.02 417.91,-192.68 420.03,-205.91"/>
<polygon fill="#b30404" stroke="black" points="416.63,-206.72 421.89,-215.92 423.51,-205.45 416.63,-206.72"/>
</g>
<!-- needle_backend_selection -->
<g id="node9" class="node">
<title>needle_backend_selection</title><style>.edge>path:hover{stroke-width:8}</style>
<ellipse fill="#bf2121" stroke="black" cx="393.15" cy="-315.64" rx="75.82" ry="21.43"/>
<text text-anchor="middle" x="393.15" y="-318.64" font-family="Helvetica,sans-Serif" font-size="10.00" fill="#ffffff">needle.</text>
<text text-anchor="middle" x="393.15" y="-307.64" font-family="Helvetica,sans-Serif" font-size="10.00" fill="#ffffff">backend_selection</text>
</g>
<!-- needle&#45;&gt;needle_backend_selection -->
<g id="edge12" class="edge">
<title>needle&#45;&gt;needle_backend_selection</title><style>.edge>path:hover{stroke-width:8}</style>
<path fill="none" stroke="black" d="M419.15,-91C406.72,-119.52 424.49,-130.35 419.15,-161"/>
<path fill="none" stroke="black" d="M419.15,-163C413.95,-192.88 386.29,-187.41 376.15,-216 368.2,-238.42 373.61,-265.06 380.37,-285"/>
<polygon fill="#b30404" stroke="black" points="377.12,-286.3 383.85,-294.48 383.69,-283.89 377.12,-286.3"/>
</g>
<!-- needle_data -->
<g id="node10" class="node">
<title>needle_data</title><style>.edge>path:hover{stroke-width:8}</style>
<ellipse fill="#a83838" stroke="black" cx="347.15" cy="-162" rx="43.62" ry="18"/>
<text text-anchor="middle" x="347.15" y="-159.5" font-family="Helvetica,sans-Serif" font-size="10.00" fill="#ffffff">needle.data</text>
</g>
<!-- needle&#45;&gt;needle_data -->
<g id="edge15" class="edge">
<title>needle&#45;&gt;needle_data</title><style>.edge>path:hover{stroke-width:8}</style>
<path fill="none" stroke="black" d="M501.01,-26.61C474,-36.13 433.8,-55.41 419.15,-89"/>
<path fill="none" stroke="black" d="M419.15,-91C410.51,-110.82 393.34,-127.87 377.94,-140.18"/>
<polygon fill="#b30404" stroke="black" points="375.46,-137.67 369.63,-146.51 379.7,-143.23 375.46,-137.67"/>
</g>
<!-- needle_init -->
<g id="node11" class="node">
<title>needle_init</title><style>.edge>path:hover{stroke-width:8}</style>
<ellipse fill="#dd1818" stroke="black" cx="565.15" cy="-315.64" rx="40.06" ry="18"/>
<text text-anchor="middle" x="565.15" y="-313.14" font-family="Helvetica,sans-Serif" font-size="10.00" fill="#ffffff">needle.init</text>
</g>
<!-- needle&#45;&gt;needle_init -->
<g id="edge16" class="edge">
<title>needle&#45;&gt;needle_init</title><style>.edge>path:hover{stroke-width:8}</style>
<path fill="none" stroke="black" d="M543.42,-33.12C558.16,-46.49 579.87,-67.65 595.15,-89"/>
<path fill="none" stroke="black" d="M595.15,-91C613.26,-116.3 588.95,-130.51 595.15,-161"/>
</g>
<!-- needle_nn -->
<g id="node12" class="node">
<title>needle_nn</title><style>.edge>path:hover{stroke-width:8}</style>
<ellipse fill="#a13535" stroke="black" cx="527.15" cy="-90" rx="38.03" ry="18"/>
<text text-anchor="middle" x="527.15" y="-87.5" font-family="Helvetica,sans-Serif" font-size="10.00" fill="#ffffff">needle.nn</text>
</g>
<!-- needle&#45;&gt;needle_nn -->
<g id="edge20" class="edge">
<title>needle&#45;&gt;needle_nn</title><style>.edge>path:hover{stroke-width:8}</style>
<path fill="none" stroke="black" d="M527.15,-36.3C527.15,-44.02 527.15,-53.29 527.15,-61.89"/>
<polygon fill="#b30404" stroke="black" points="523.65,-61.9 527.15,-71.9 530.65,-61.9 523.65,-61.9"/>
</g>
<!-- needle_ops -->
<g id="node13" class="node">
<title>needle_ops</title><style>.edge>path:hover{stroke-width:8}</style>
<ellipse fill="#ac2b2b" stroke="black" cx="526.15" cy="-162" rx="41.41" ry="18"/>
<text text-anchor="middle" x="526.15" y="-159.5" font-family="Helvetica,sans-Serif" font-size="10.00" fill="#ffffff">needle.ops</text>
</g>
<!-- needle&#45;&gt;needle_ops -->
<g id="edge21" class="edge">
<title>needle&#45;&gt;needle_ops</title><style>.edge>path:hover{stroke-width:8}</style>
<path fill="none" stroke="black" d="M419.15,-91C405.83,-121.56 444.96,-140.35 479.59,-150.67"/>
<polygon fill="#b30404" stroke="black" points="479.08,-154.16 489.66,-153.48 480.97,-147.42 479.08,-154.16"/>
</g>
<!-- needle_optim -->
<g id="node14" class="node">
<title>needle_optim</title><style>.edge>path:hover{stroke-width:8}</style>
<ellipse fill="#b83d3d" stroke="black" cx="432.15" cy="-657.24" rx="47.86" ry="18"/>
<text text-anchor="middle" x="432.15" y="-654.74" font-family="Helvetica,sans-Serif" font-size="10.00" fill="#ffffff">needle.optim</text>
</g>
<!-- needle&#45;&gt;needle_optim -->
<g id="edge23" class="edge">
<title>needle&#45;&gt;needle_optim</title><style>.edge>path:hover{stroke-width:8}</style>
<path fill="none" stroke="black" d="M595.15,-91C614.36,-117.83 630.89,-115.28 647.15,-144 668.02,-180.85 671.15,-193.86 671.15,-236.21 671.15,-236.21 671.15,-236.21 671.15,-481.27 671.15,-536.52 685.28,-563.26 647.15,-603.24 625.42,-626.03 543.48,-641.36 487.27,-649.44"/>
<polygon fill="#b30404" stroke="black" points="486.51,-646.01 477.09,-650.86 487.48,-652.94 486.51,-646.01"/>
</g>
<!-- needle_autograd&#45;&gt;needle_backend_selection -->
<g id="edge13" class="edge">
<title>needle_autograd&#45;&gt;needle_backend_selection</title><style>.edge>path:hover{stroke-width:8}</style>
<path fill="none" stroke="black" d="M418.22,-258.29C414.58,-266.48 410.3,-276.11 406.31,-285.07"/>
<polygon fill="#ca1616" stroke="black" points="403.01,-283.87 402.14,-294.43 409.41,-286.71 403.01,-283.87"/>
</g>
<!-- needle_autograd&#45;&gt;needle_init -->
<g id="edge17" class="edge">
<title>needle_autograd&#45;&gt;needle_init</title><style>.edge>path:hover{stroke-width:8}</style>
<path fill="none" stroke="black" d="M454.75,-253.5C476.97,-265.8 508.28,-283.14 531.89,-296.22"/>
<polygon fill="#ca1616" stroke="black" points="530.4,-299.39 540.84,-301.17 533.79,-293.27 530.4,-299.39"/>
</g>
<!-- numpy -->
<g id="node15" class="node">
<title>numpy</title><style>.edge>path:hover{stroke-width:8}</style>
<ellipse fill="#06f9f9" stroke="black" cx="356.15" cy="-766.24" rx="29.37" ry="18"/>
<text text-anchor="middle" x="356.15" y="-763.74" font-family="Helvetica,sans-Serif" font-size="10.00" fill="#000000">numpy</text>
</g>
<!-- needle_autograd&#45;&gt;numpy -->
<g id="edge24" class="edge">
<title>needle_autograd&#45;&gt;numpy</title><style>.edge>path:hover{stroke-width:8}</style>
<path fill="none" stroke="black" d="M444.21,-256.67C458.43,-272.11 479.2,-294.73 497.15,-314.64"/>
<path fill="none" stroke="black" d="M497.15,-316.64C505.41,-325.8 505.93,-329.96 516.15,-336.85 552.91,-361.62 571.02,-350.27 609.15,-372.85 621.15,-379.96 628.28,-380 633.15,-393.07"/>
<path fill="none" stroke="black" d="M633.15,-395.07C646.24,-430.13 629.1,-442.07 633.15,-479.27"/>
</g>
<!-- needle_backend_ndarray -->
<g id="node3" class="node">
<title>needle_backend_ndarray</title><style>.edge>path:hover{stroke-width:8}</style>
<ellipse fill="#d92626" stroke="black" cx="239.15" cy="-394.07" rx="70.92" ry="21.43"/>
<text text-anchor="middle" x="239.15" y="-397.07" font-family="Helvetica,sans-Serif" font-size="10.00" fill="#ffffff">needle.</text>
<text text-anchor="middle" x="239.15" y="-386.07" font-family="Helvetica,sans-Serif" font-size="10.00" fill="#ffffff">backend_ndarray</text>
</g>
<!-- needle_backend_ndarray_ndarray -->
<g id="node4" class="node">
<title>needle_backend_ndarray_ndarray</title><style>.edge>path:hover{stroke-width:8}</style>
<ellipse fill="#993333" stroke="black" cx="324.15" cy="-480.27" rx="71.34" ry="28.98"/>
<text text-anchor="middle" x="324.15" y="-488.77" font-family="Helvetica,sans-Serif" font-size="10.00" fill="#ffffff">needle.</text>
<text text-anchor="middle" x="324.15" y="-477.77" font-family="Helvetica,sans-Serif" font-size="10.00" fill="#ffffff">backend_ndarray.</text>
<text text-anchor="middle" x="324.15" y="-466.77" font-family="Helvetica,sans-Serif" font-size="10.00" fill="#ffffff">ndarray</text>
</g>
<!-- needle_backend_ndarray&#45;&gt;needle_backend_ndarray_ndarray -->
<g id="edge7" class="edge">
<title>needle_backend_ndarray&#45;&gt;needle_backend_ndarray_ndarray</title><style>.edge>path:hover{stroke-width:8}</style>
<path fill="none" stroke="black" d="M258.87,-414.6C268.27,-423.91 279.79,-435.32 290.52,-445.95"/>
<polygon fill="#d92626" stroke="black" points="288.22,-448.6 297.78,-453.15 293.14,-443.62 288.22,-448.6"/>
</g>
<!-- needle_backend_ndarray_ndarray_backend_cpu -->
<g id="node5" class="node">
<title>needle_backend_ndarray_ndarray_backend_cpu</title><style>.edge>path:hover{stroke-width:8}</style>
<ellipse fill="#b65353" stroke="black" cx="519.15" cy="-574.25" rx="86.03" ry="28.98"/>
<text text-anchor="middle" x="519.15" y="-582.75" font-family="Helvetica,sans-Serif" font-size="10.00" fill="#ffffff">needle.</text>
<text text-anchor="middle" x="519.15" y="-571.75" font-family="Helvetica,sans-Serif" font-size="10.00" fill="#ffffff">backend_ndarray.</text>
<text text-anchor="middle" x="519.15" y="-560.75" font-family="Helvetica,sans-Serif" font-size="10.00" fill="#ffffff">ndarray_backend_cpu</text>
</g>
<!-- needle_backend_ndarray_ndarray&#45;&gt;needle_backend_ndarray_ndarray_backend_cpu -->
<g id="edge8" class="edge">
<title>needle_backend_ndarray_ndarray&#45;&gt;needle_backend_ndarray_ndarray_backend_cpu</title><style>.edge>path:hover{stroke-width:8}</style>
<path fill="none" stroke="black" d="M369.87,-502.84C397.09,-515.68 431.9,-532.1 461.06,-545.85"/>
<polygon fill="#993333" stroke="black" points="459.77,-549.11 470.31,-550.21 462.76,-542.78 459.77,-549.11"/>
</g>
<!-- needle_backend_ndarray_ndarray_backend_cuda -->
<g id="node6" class="node">
<title>needle_backend_ndarray_ndarray_backend_cuda</title><style>.edge>path:hover{stroke-width:8}</style>
<ellipse fill="#b65353" stroke="black" cx="324.15" cy="-574.25" rx="90.52" ry="28.98"/>
<text text-anchor="middle" x="324.15" y="-582.75" font-family="Helvetica,sans-Serif" font-size="10.00" fill="#ffffff">needle.</text>
<text text-anchor="middle" x="324.15" y="-571.75" font-family="Helvetica,sans-Serif" font-size="10.00" fill="#ffffff">backend_ndarray.</text>
<text text-anchor="middle" x="324.15" y="-560.75" font-family="Helvetica,sans-Serif" font-size="10.00" fill="#ffffff">ndarray_backend_cuda</text>
</g>
<!-- needle_backend_ndarray_ndarray&#45;&gt;needle_backend_ndarray_ndarray_backend_cuda -->
<g id="edge9" class="edge">
<title>needle_backend_ndarray_ndarray&#45;&gt;needle_backend_ndarray_ndarray_backend_cuda</title><style>.edge>path:hover{stroke-width:8}</style>
<path fill="none" stroke="black" d="M324.15,-509.37C324.15,-517.41 324.15,-526.31 324.15,-534.85"/>
<polygon fill="#993333" stroke="black" points="320.65,-535.01 324.15,-545.01 327.65,-535.01 320.65,-535.01"/>
</g>
<!-- needle_backend_ndarray_ndarray_backend_numpy -->
<g id="node7" class="node">
<title>needle_backend_ndarray_ndarray_backend_numpy</title><style>.edge>path:hover{stroke-width:8}</style>
<ellipse fill="#c04040" stroke="black" cx="117.15" cy="-574.25" rx="98.08" ry="28.98"/>
<text text-anchor="middle" x="117.15" y="-582.75" font-family="Helvetica,sans-Serif" font-size="10.00" fill="#ffffff">needle.</text>
<text text-anchor="middle" x="117.15" y="-571.75" font-family="Helvetica,sans-Serif" font-size="10.00" fill="#ffffff">backend_ndarray.</text>
<text text-anchor="middle" x="117.15" y="-560.75" font-family="Helvetica,sans-Serif" font-size="10.00" fill="#ffffff">ndarray_backend_numpy</text>
</g>
<!-- needle_backend_ndarray_ndarray&#45;&gt;needle_backend_ndarray_ndarray_backend_numpy -->
<g id="edge10" class="edge">
<title>needle_backend_ndarray_ndarray&#45;&gt;needle_backend_ndarray_ndarray_backend_numpy</title><style>.edge>path:hover{stroke-width:8}</style>
<path fill="none" stroke="black" d="M277.18,-502.14C248.32,-514.97 210.99,-531.55 179.65,-545.48"/>
<polygon fill="#993333" stroke="black" points="177.85,-542.45 170.14,-549.71 180.7,-548.85 177.85,-542.45"/>
</g>
<!-- needle_backend_ndarray_ndarray&#45;&gt;numpy -->
<g id="edge25" class="edge">
<title>needle_backend_ndarray_ndarray&#45;&gt;numpy</title><style>.edge>path:hover{stroke-width:8}</style>
<path fill="none" stroke="black" d="M386.49,-494.43C470.28,-512.2 609.39,-542.03 614.15,-545.26 626.6,-553.7 635.53,-558.41 633.15,-573.25"/>
<path fill="none" stroke="black" d="M633.15,-575.25C612.9,-701.91 299.21,-541.31 356.15,-656.24"/>
</g>
<!-- needle_backend_ndarray_ndarray_backend_numpy&#45;&gt;numpy -->
<g id="edge26" class="edge">
<title>needle_backend_ndarray_ndarray_backend_numpy&#45;&gt;numpy</title><style>.edge>path:hover{stroke-width:8}</style>
<path fill="none" stroke="black" d="M188.86,-594.08C256.39,-612.66 348.35,-640.49 356.15,-656.24"/>
</g>
<!-- needle_backend_numpy -->
<g id="node8" class="node">
<title>needle_backend_numpy</title><style>.edge>path:hover{stroke-width:8}</style>
<ellipse fill="#c04040" stroke="black" cx="537.15" cy="-480.27" rx="67.76" ry="21.43"/>
<text text-anchor="middle" x="537.15" y="-483.27" font-family="Helvetica,sans-Serif" font-size="10.00" fill="#ffffff">needle.</text>
<text text-anchor="middle" x="537.15" y="-472.27" font-family="Helvetica,sans-Serif" font-size="10.00" fill="#ffffff">backend_numpy</text>
</g>
<!-- needle_backend_numpy&#45;&gt;numpy -->
<g id="edge27" class="edge">
<title>needle_backend_numpy&#45;&gt;numpy</title><style>.edge>path:hover{stroke-width:8}</style>
<path fill="none" stroke="black" d="M575.71,-497.94C604.72,-513.36 638.62,-539.06 633.15,-573.25"/>
</g>
<!-- needle_backend_selection&#45;&gt;needle_backend_ndarray -->
<g id="edge5" class="edge">
<title>needle_backend_selection&#45;&gt;needle_backend_ndarray</title><style>.edge>path:hover{stroke-width:8}</style>
<path fill="none" stroke="black" d="M357.44,-334.37C335.39,-345.3 306.94,-359.42 283.47,-371.07"/>
<polygon fill="#bf2121" stroke="black" points="281.81,-367.99 274.41,-375.57 284.93,-374.26 281.81,-367.99"/>
</g>
<!-- needle_backend_selection&#45;&gt;needle_backend_numpy -->
<g id="edge11" class="edge">
<title>needle_backend_selection&#45;&gt;needle_backend_numpy</title><style>.edge>path:hover{stroke-width:8}</style>
<path fill="none" stroke="black" d="M449.77,-329.79C503.93,-343.72 579.59,-367.26 595.15,-393.07"/>
<path fill="none" stroke="black" d="M595.15,-395.07C607.42,-415.42 591,-437.51 572.53,-453.96"/>
<polygon fill="#bf2121" stroke="black" points="569.98,-451.53 564.57,-460.64 574.48,-456.89 569.98,-451.53"/>
</g>
<!-- needle_backend_selection&#45;&gt;numpy -->
<g id="edge28" class="edge">
<title>needle_backend_selection&#45;&gt;numpy</title><style>.edge>path:hover{stroke-width:8}</style>
<path fill="none" stroke="black" d="M595.15,-395.07C616.35,-430.23 628.71,-438.45 633.15,-479.27"/>
<path fill="none" stroke="black" d="M633.15,-481.27C637.58,-521.91 639.61,-532.88 633.15,-573.25"/>
</g>
<!-- needle_data&#45;&gt;needle_autograd -->
<g id="edge2" class="edge">
<title>needle_data&#45;&gt;needle_autograd</title><style>.edge>path:hover{stroke-width:8}</style>
<path fill="none" stroke="black" d="M364.51,-178.89C374.92,-188.41 388.37,-200.72 400.14,-211.49"/>
<polygon fill="#a83838" stroke="black" points="397.84,-214.13 407.58,-218.3 402.57,-208.97 397.84,-214.13"/>
</g>
<!-- needle_data&#45;&gt;needle_backend_ndarray -->
<g id="edge6" class="edge">
<title>needle_data&#45;&gt;needle_backend_ndarray</title><style>.edge>path:hover{stroke-width:8}</style>
<path fill="none" stroke="black" d="M239.15,-316.64C234.12,-331.12 233.63,-348.1 234.61,-362.37"/>
<polygon fill="#a83838" stroke="black" points="231.16,-363.05 235.59,-372.67 238.13,-362.38 231.16,-363.05"/>
</g>
<!-- needle_data&#45;&gt;numpy -->
<g id="edge29" class="edge">
<title>needle_data&#45;&gt;numpy</title><style>.edge>path:hover{stroke-width:8}</style>
<path fill="none" stroke="black" d="M330.96,-178.91C305.93,-204.7 258.68,-258.46 239.15,-314.64"/>
<path fill="none" stroke="black" d="M239.15,-316.64C214.8,-352.63 191.38,-343.7 159.15,-372.85 84.04,-440.79 45.48,-450.35 10.15,-545.26 1.16,-569.41 -6.63,-583.69 10.15,-603.24 111.49,-721.29 287.08,-516.85 356.15,-656.24"/>
<path fill="none" stroke="black" d="M356.15,-658.24C366.37,-679.47 363.21,-688.77 356.15,-711.24"/>
<path fill="none" stroke="black" d="M356.15,-712.24C353.59,-720.39 352.89,-729.6 353.03,-738.02"/>
<polygon fill="#a83838" stroke="black" points="349.55,-738.35 353.59,-748.14 356.53,-737.96 349.55,-738.35"/>
</g>
<!-- needle_init&#45;&gt;numpy -->
<g id="edge30" class="edge">
<title>needle_init&#45;&gt;numpy</title><style>.edge>path:hover{stroke-width:8}</style>
<path fill="none" stroke="black" d="M584.71,-331.44C601.22,-345.28 623.65,-367.61 633.15,-393.07"/>
</g>
<!-- needle_nn&#45;&gt;needle_autograd -->
<g id="edge3" class="edge">
<title>needle_nn&#45;&gt;needle_autograd</title><style>.edge>path:hover{stroke-width:8}</style>
<path fill="none" stroke="black" d="M510.29,-106.2C499.7,-116.27 486.2,-130.15 476.15,-144 461.84,-163.75 449.03,-188.21 440.11,-206.98"/>
<polygon fill="#a13535" stroke="black" points="436.85,-205.67 435.81,-216.21 443.2,-208.63 436.85,-205.67"/>
</g>
<!-- needle_nn&#45;&gt;needle_init -->
<g id="edge18" class="edge">
<title>needle_nn&#45;&gt;needle_init</title><style>.edge>path:hover{stroke-width:8}</style>
<path fill="none" stroke="black" d="M549.97,-104.55C567.5,-116.69 589.63,-136.37 595.15,-161"/>
<path fill="none" stroke="black" d="M595.15,-163C604.97,-206.76 589.18,-258 577.04,-288.32"/>
<polygon fill="#a13535" stroke="black" points="573.73,-287.17 573.11,-297.75 580.19,-289.87 573.73,-287.17"/>
</g>
<!-- needle_nn&#45;&gt;needle_ops -->
<g id="edge22" class="edge">
<title>needle_nn&#45;&gt;needle_ops</title><style>.edge>path:hover{stroke-width:8}</style>
<path fill="none" stroke="black" d="M526.91,-108.3C526.8,-116.02 526.66,-125.29 526.54,-133.89"/>
<polygon fill="#a13535" stroke="black" points="523.04,-133.85 526.4,-143.9 530.04,-133.95 523.04,-133.85"/>
</g>
<!-- needle_nn&#45;&gt;numpy -->
<g id="edge31" class="edge">
<title>needle_nn&#45;&gt;numpy</title><style>.edge>path:hover{stroke-width:8}</style>
<path fill="none" stroke="black" d="M556.01,-101.85C574.45,-110.38 597.08,-124.16 609.15,-144 666.95,-239.01 594.27,-288.88 633.15,-393.07"/>
</g>
<!-- needle_ops&#45;&gt;needle_autograd -->
<g id="edge4" class="edge">
<title>needle_ops&#45;&gt;needle_autograd</title><style>.edge>path:hover{stroke-width:8}</style>
<path fill="none" stroke="black" d="M506.12,-177.82C492.48,-187.9 474.16,-201.45 458.6,-212.96"/>
<polygon fill="#ac2b2b" stroke="black" points="456.24,-210.35 450.28,-219.11 460.4,-215.98 456.24,-210.35"/>
</g>
<!-- needle_ops&#45;&gt;needle_backend_selection -->
<g id="edge14" class="edge">
<title>needle_ops&#45;&gt;needle_backend_selection</title><style>.edge>path:hover{stroke-width:8}</style>
<path fill="none" stroke="black" d="M518.2,-179.78C511.6,-194.38 502.46,-216.26 497.15,-236.21"/>
<path fill="none" stroke="black" d="M497.15,-238.21C490.47,-263.34 468.49,-281.38 446.44,-293.61"/>
<polygon fill="#ac2b2b" stroke="black" points="444.62,-290.61 437.37,-298.34 447.85,-296.82 444.62,-290.61"/>
</g>
<!-- needle_ops&#45;&gt;needle_init -->
<g id="edge19" class="edge">
<title>needle_ops&#45;&gt;needle_init</title><style>.edge>path:hover{stroke-width:8}</style>
<path fill="none" stroke="black" d="M497.15,-238.21C490.84,-261.94 511.18,-282.33 531.22,-296.07"/>
<polygon fill="#ac2b2b" stroke="black" points="529.41,-299.07 539.72,-301.54 533.2,-293.18 529.41,-299.07"/>
</g>
<!-- needle_ops&#45;&gt;numpy -->
<g id="edge32" class="edge">
<title>needle_ops&#45;&gt;numpy</title><style>.edge>path:hover{stroke-width:8}</style>
<path fill="none" stroke="black" d="M497.15,-238.21C488.42,-271.04 474.41,-289.41 497.15,-314.64"/>
</g>
<!-- needle_optim&#45;&gt;numpy -->
<g id="edge33" class="edge">
<title>needle_optim&#45;&gt;numpy</title><style>.edge>path:hover{stroke-width:8}</style>
<path fill="none" stroke="black" d="M398.37,-670.21C381.03,-678.56 362.28,-691.75 356.15,-711.24"/>
</g>
</g>
</svg>
